<?xml version="1.0" encoding="UTF-8" standalone="no"?>
<!-- Created with Inkscape (http://www.inkscape.org/) -->

<svg
   width="43.888969mm"
   height="43.888969mm"
   viewBox="0 0 43.888969 43.888969"
   version="1.1"
   id="svg5"
   xml:space="preserve"
   inkscape:export-filename="plane.svg"
   inkscape:export-xdpi="96"
   inkscape:export-ydpi="96"
   xmlns:inkscape="http://www.inkscape.org/namespaces/inkscape"
   xmlns:sodipodi="http://sodipodi.sourceforge.net/DTD/sodipodi-0.dtd"
   xmlns="http://www.w3.org/2000/svg"
   xmlns:svg="http://www.w3.org/2000/svg"><sodipodi:namedview
     id="namedview7"
     pagecolor="#ffffff"
     bordercolor="#999999"
     borderopacity="1"
     inkscape:showpageshadow="0"
     inkscape:pageopacity="0"
     inkscape:pagecheckerboard="0"
     inkscape:deskcolor="#d1d1d1"
     inkscape:document-units="mm"
     showgrid="false" /><defs
     id="defs2" /><g
     inkscape:label="Layer 1"
     inkscape:groupmode="layer"
     id="layer1"
     transform="translate(1.0219291,0.72860426)"><g
       id="g11557"><path
         id="path7765"
         style="color:#000000;fill:#ffffff;fill-opacity:1;-inkscape-stroke:none"
         d="m 37.525514,12.09002 c -1.130628,0.01075 -2.46066,0.261138 -4.001822,0.795817 -5.34204,1.853341 -21.57615,7.234328 -22.176805,7.432269 L 5.8686691,16.849585 0.79700806,18.714421 1.4042061,19.64408 c 0,0 0.761897,1.170966 1.705322,2.538863 0.943424,1.367898 2.041406,2.912688 2.849439,3.790983 1.700916,1.848825 4.4648039,2.343219 7.9101099,1.283126 0.954561,-0.293711 2.920424,-0.923648 5.276681,-1.688269 l 1.39423,-2.347143 c -3.249203,1.060875 -6.020568,1.951661 -7.200077,2.314587 -3.067905,0.94397 -4.8765533,0.501697 -6.0564769,-0.780831 -0.63239,-0.687378 -1.765289,-2.248437 -2.693376,-3.594096 -0.584252,-0.847123 -0.756377,-1.117407 -1.056783,-1.571997 l 2.13799,-0.73364 5.4317089,3.439067 0.40411,-0.132809 c 0,0 17.112843,-5.669046 22.606236,-7.574895 1.864712,-0.646935 3.297552,-0.781417 4.220931,-0.648023 0.923379,0.133394 1.257498,0.469615 1.361157,0.744141 0.103659,0.274524 0.06317,0.737793 -0.478524,1.378727 -0.541693,0.640934 -1.565554,1.367478 -3.107304,1.927531 -1.756289,0.637985 -4.99073,1.734566 -8.503873,2.903698 l -2.212785,2.63033 c 4.503907,-1.486861 9.063806,-3.018863 11.331608,-3.84266 1.764582,-0.640998 3.0516,-1.491362 3.867464,-2.456696 0.815863,-0.965334 1.179729,-2.136033 0.787032,-3.176034 -0.392697,-1.04 -1.456949,-1.697896 -2.788977,-1.890324 -0.333007,-0.04811 -0.687658,-0.07128 -1.064535,-0.0677 z"
         sodipodi:nodetypes="ssccccsssccsssccccsssssccssssss" /><path
         style="color:#000000;fill:#ffffff;fill-opacity:1;stroke-linecap:round;stroke-linejoin:round;-inkscape-stroke:none"
         d="m 29.478516,17.466797 -7.951172,2.746094 a 0.90008998,0.90008998 0 0 0 -0.478516,0.390625 l -5.710937,9.615234 a 0.90008998,0.90008998 0 0 0 1.076171,1.306641 l 4.66211,-1.66211 a 0.90008998,0.90008998 0 0 0 0.386719,-0.269531 l 8.998046,-10.697266 a 0.90008998,0.90008998 0 0 0 -0.982421,-1.429687 z m -2.494141,2.765625 -6.742188,8.017578 -2.083984,0.742187 4.269531,-7.185546 z"
         id="path7769" /><path
         style="color:#000000;fill:#ffffff;fill-opacity:1;stroke-linecap:round;stroke-linejoin:round;-inkscape-stroke:none"
         d="m 19.324219,13.333984 a 0.90008998,0.90008998 0 0 0 -0.46875,0.03906 l -4.650391,1.695312 a 0.90008998,0.90008998 0 0 0 0.0059,1.69336 l 6.214843,2.216797 a 0.90008998,0.90008998 0 0 0 0.585938,0.0078 c 2.372581,-0.787592 4.833878,-1.607217 7.05664,-2.351562 a 0.90008998,0.90008998 0 0 0 -0.125,-1.738282 z m -0.08203,1.814454 4.917969,0.890624 c -1.151746,0.383693 -2.267795,0.757438 -3.421875,1.140625 l -3.572265,-1.27539 z"
         id="path7769-6" /></g></g></svg>
