{
    "asset" : {
        "generator" : "Khronos glTF Blender I/O v3.4.50",
        "version" : "2.0"
    },
    "scene" : 0,
    "scenes" : [
        {
            "name" : "Scene",
            "nodes" : [
                0,
                1,
                2,
                3,
                4,
                5,
                6,
                7
            ]
        }
    ],
    "nodes" : [
        {
            "mesh" : 0,
            "name" : "Torus.001",
            "rotation" : [
                0.7071068286895752,
                0,
                0,
                0.7071068286895752
            ],
            "scale" : [
                1,
                1,
                0.19999998807907104
            ]
        },
        {
            "mesh" : 1,
            "name" : "Torus.002",
            "rotation" : [
                0,
                0.7071068286895752,
                0,
                0.7071068286895752
            ],
            "scale" : [
                1,
                1,
                0.19999998807907104
            ]
        },
        {
            "mesh" : 2,
            "name" : "Torus.003",
            "scale" : [
                0.8748798370361328,
                0.8748798370361328,
                0.8748798370361328
            ],
            "translation" : [
                0,
                0,
                1
            ]
        },
        {
            "mesh" : 3,
            "name" : "Torus.004",
            "scale" : [
                0.5482252240180969,
                0.5482252240180969,
                0.5482252240180969
            ],
            "translation" : [
                0,
                0,
                1.6909812688827515
            ]
        },
        {
            "mesh" : 4,
            "name" : "Torus.005",
            "rotation" : [
                -0.1830127090215683,
                0.6830126643180847,
                0.1830126941204071,
                0.6830127239227295
            ],
            "scale" : [
                1,
                1,
                0.19999997317790985
            ]
        },
        {
            "mesh" : 5,
            "name" : "Torus.006",
            "rotation" : [
                -0.3535534143447876,
                0.6123723983764648,
                0.3535533845424652,
                0.6123724579811096
            ],
            "scale" : [
                1,
                1,
                0.19999998807907104
            ]
        },
        {
            "mesh" : 6,
            "name" : "Torus.007",
            "rotation" : [
                -0.6123724579811096,
                0.3535533845424652,
                0.6123724579811096,
                0.3535533845424652
            ],
            "scale" : [
                1,
                1,
                0.19999998807907104
            ]
        },
        {
            "mesh" : 7,
            "name" : "Torus.008",
            "rotation" : [
                -0.6830127239227295,
                0.1830127090215683,
                0.6830126643180847,
                0.18301275372505188
            ],
            "scale" : [
                1,
                1,
                0.19999998807907104
            ]
        }
    ],
    "meshes" : [
        {
            "name" : "Torus.001",
            "primitives" : [
                {
                    "attributes" : {
                        "POSITION" : 0
                    },
                    "indices" : 1
                }
            ]
        },
        {
            "name" : "Torus.002",
            "primitives" : [
                {
                    "attributes" : {
                        "POSITION" : 2
                    },
                    "indices" : 1
                }
            ]
        },
        {
            "name" : "Torus.003",
            "primitives" : [
                {
                    "attributes" : {
                        "POSITION" : 3
                    },
                    "indices" : 4
                }
            ]
        },
        {
            "name" : "Torus.004",
            "primitives" : [
                {
                    "attributes" : {
                        "POSITION" : 5
                    },
                    "indices" : 4
                }
            ]
        },
        {
            "name" : "Torus.009",
            "primitives" : [
                {
                    "attributes" : {
                        "POSITION" : 6
                    },
                    "indices" : 4
                }
            ]
        },
        {
            "name" : "Torus.010",
            "primitives" : [
                {
                    "attributes" : {
                        "POSITION" : 7
                    },
                    "indices" : 4
                }
            ]
        },
        {
            "name" : "Torus.011",
            "primitives" : [
                {
                    "attributes" : {
                        "POSITION" : 8
                    },
                    "indices" : 4
                }
            ]
        },
        {
            "name" : "Torus.012",
            "primitives" : [
                {
                    "attributes" : {
                        "POSITION" : 9
                    },
                    "indices" : 4
                }
            ]
        }
    ],
    "accessors" : [
        {
            "bufferView" : 0,
            "componentType" : 5126,
            "count" : 87,
            "max" : [
                2.0387697219848633,
                2.049999952316284,
                0.0433012880384922
            ],
            "min" : [
                -2.0387699604034424,
                0.11456143110990524,
                -0.04330126941204071
            ],
            "type" : "VEC3"
        },
        {
            "bufferView" : 1,
            "componentType" : 5123,
            "count" : 504,
            "type" : "SCALAR"
        },
        {
            "bufferView" : 2,
            "componentType" : 5126,
            "count" : 87,
            "max" : [
                -0.13425135612487793,
                2.0387697219848633,
                0.04330126941204071
            ],
            "min" : [
                -2.049999952316284,
                -2.0387697219848633,
                -0.0433012954890728
            ],
            "type" : "VEC3"
        },
        {
            "bufferView" : 3,
            "componentType" : 5126,
            "count" : 180,
            "max" : [
                2.049999952316284,
                2.049999952316284,
                0.020208578556776047
            ],
            "min" : [
                -2.049999952316284,
                -2.049999952316284,
                -0.05128023773431778
            ],
            "type" : "VEC3"
        },
        {
            "bufferView" : 4,
            "componentType" : 5123,
            "count" : 1080,
            "type" : "SCALAR"
        },
        {
            "bufferView" : 5,
            "componentType" : 5126,
            "count" : 180,
            "max" : [
                1.8766052722930908,
                1.8766052722930908,
                0.1606513261795044
            ],
            "min" : [
                -1.8766051530838013,
                -1.8766050338745117,
                0.043301478028297424
            ],
            "type" : "VEC3"
        },
        {
            "bufferView" : 6,
            "componentType" : 5126,
            "count" : 180,
            "max" : [
                2.049999952316284,
                2.049999952316284,
                0.04330126941204071
            ],
            "min" : [
                -2.049999952316284,
                -2.049999952316284,
                -0.04330126941204071
            ],
            "type" : "VEC3"
        },
        {
            "bufferView" : 7,
            "componentType" : 5126,
            "count" : 180,
            "max" : [
                2.049999952316284,
                2.049999952316284,
                0.04330126941204071
            ],
            "min" : [
                -2.049999952316284,
                -2.049999952316284,
                -0.04330126941204071
            ],
            "type" : "VEC3"
        },
        {
            "bufferView" : 8,
            "componentType" : 5126,
            "count" : 180,
            "max" : [
                2.049999952316284,
                2.049999952316284,
                0.04330126941204071
            ],
            "min" : [
                -2.049999952316284,
                -2.049999952316284,
                -0.04330126941204071
            ],
            "type" : "VEC3"
        },
        {
            "bufferView" : 9,
            "componentType" : 5126,
            "count" : 180,
            "max" : [
                2.049999952316284,
                2.049999952316284,
                0.04330126941204071
            ],
            "min" : [
                -2.049999952316284,
                -2.049999952316284,
                -0.04330126941204071
            ],
            "type" : "VEC3"
        }
    ],
    "bufferViews" : [
        {
            "buffer" : 0,
            "byteLength" : 1044,
            "byteOffset" : 0,
            "target" : 34962
        },
        {
            "buffer" : 0,
            "byteLength" : 1008,
            "byteOffset" : 1044,
            "target" : 34963
        },
        {
            "buffer" : 0,
            "byteLength" : 1044,
            "byteOffset" : 2052,
            "target" : 34962
        },
        {
            "buffer" : 0,
            "byteLength" : 2160,
            "byteOffset" : 3096,
            "target" : 34962
        },
        {
            "buffer" : 0,
            "byteLength" : 2160,
            "byteOffset" : 5256,
            "target" : 34963
        },
        {
            "buffer" : 0,
            "byteLength" : 2160,
            "byteOffset" : 7416,
            "target" : 34962
        },
        {
            "buffer" : 0,
            "byteLength" : 2160,
            "byteOffset" : 9576,
            "target" : 34962
        },
        {
            "buffer" : 0,
            "byteLength" : 2160,
            "byteOffset" : 11736,
            "target" : 34962
        },
        {
            "buffer" : 0,
            "byteLength" : 2160,
            "byteOffset" : 13896,
            "target" : 34962
        },
        {
            "buffer" : 0,
            "byteLength" : 2160,
            "byteOffset" : 16056,
            "target" : 34962
        }
    ],
    "buffers" : [
        {
            "byteLength" : 18216,
            "uri" : "data:application/octet-stream;base64,"
        }
    ]
}
